<svg width="162" height="153" viewBox="0 0 162 153" fill="none" xmlns="http://www.w3.org/2000/svg">
<rect width="162" height="153" fill="#1E1E1E"/>
<g id="community" clip-path="url(#clip0_0_1)">
<rect width="1440" height="1024" transform="translate(-56 -124)" fill="#FFDF86"/>
<g id="32 1">
<g id="Vector">
<path d="M84.996 66.6598L42.9257 0.798984L71.3363 73.6029L0.958921 117.458L77.8695 86.4561L119.941 152.317L91.5292 79.513L161.91 35.6479L84.996 66.6598Z" fill="#F6FCAE"/>
<path d="M84.996 66.6598L42.9257 0.798984L71.3363 73.6029L0.958921 117.458L77.8695 86.4561L119.941 152.317L91.5292 79.513L161.91 35.6479L84.996 66.6598Z" stroke="black"/>
</g>
<path id="Vector_2" d="M116.354 33.6639L105.897 6.86734L131.808 -9.28121L103.491 2.13415L88.0028 -22.1133L98.4632 4.68973L72.5517 20.8384L100.869 9.42292L116.354 33.6639Z" fill="#F6FCAE"/>
<path id="Vector_3" d="M42.4003 122.889L48.0511 137.365L34.0587 146.092L49.3526 139.926L57.7168 153.022L52.0661 138.546L66.0681 129.822L50.7646 135.986L42.4003 122.889Z" fill="#F6FCAE"/>
<path id="Vector_4" d="M126.567 87.5919L118.203 74.4959L123.853 88.9712L109.852 97.6954L125.152 91.5257L133.519 104.628L127.865 90.1464L141.867 81.4222L126.567 87.5919Z" fill="#F6FCAE"/>
<path id="Vector_5" d="M35.2629 69.2172L29.6094 54.7352L43.604 46.0146L28.311 52.1807L19.9465 39.0842L25.5973 53.5601L11.5951 62.2844L26.8957 56.1145L35.2629 69.2172Z" fill="#F6FCAE"/>
<path id="Vector_6" d="M149.829 82.1031L155.484 96.5846L141.488 105.306L156.782 99.1391L165.146 112.236L159.502 97.7567L173.498 89.0356L158.204 95.2021L149.829 82.1031Z" fill="#F6FCAE"/>
</g>
<g id="commBox">
<rect id="Rectangle 8" x="145.5" y="61.5" width="1037" height="797" fill="#FFDEDE" stroke="#B2B7FF" stroke-width="3" stroke-dasharray="8 8"/>
</g>
</g>
<defs>
<clipPath id="clip0_0_1">
<rect width="1440" height="1024" fill="white" transform="translate(-56 -124)"/>
</clipPath>
</defs>
</svg>
