<svg width="317" height="264" viewBox="0 0 317 264" fill="none" xmlns="http://www.w3.org/2000/svg">
<path d="M140.996 77.66L98.9258 11.799L127.336 84.603L56.959 128.458L133.869 97.456L175.941 163.317L147.529 90.513L217.91 46.648L140.996 77.66Z" fill="#F6FCAE"/>
<path d="M172.354 44.664L161.897 17.867L187.808 1.71882L159.491 13.134L144.003 -11.1133L154.463 15.69L128.552 31.838L156.869 20.423L172.354 44.664Z" fill="#F6FCAE"/>
<path d="M98.4002 133.889L104.051 148.365L90.0586 157.092L105.353 150.926L113.717 164.022L108.066 149.546L122.068 140.822L106.765 146.986L98.4002 133.889Z" fill="#F6FCAE"/>
<path d="M182.567 98.592L174.203 85.496L179.853 99.971L165.852 108.695L181.152 102.526L189.519 115.628L183.865 101.146L197.867 92.422L182.567 98.592Z" fill="#F6FCAE"/>
<path d="M91.263 80.217L85.6095 65.735L99.6041 57.015L84.3111 63.181L75.9466 50.084L81.5974 64.56L67.5952 73.284L82.8958 67.115L91.263 80.217Z" fill="#F6FCAE"/>
<path d="M205.829 93.103L211.484 107.585L197.488 116.306L212.782 110.139L221.146 123.236L215.502 108.757L229.498 100.036L214.204 106.202L205.829 93.103Z" fill="#F6FCAE"/>
</svg>
