<svg width="324" height="177" viewBox="0 0 324 177" fill="none" xmlns="http://www.w3.org/2000/svg">
<g clip-path="url(#clip0_137_59)">
<path d="M188.743 50.7646L133.406 11.2309L106.844 14.3937L75.8555 33.3698L82.4959 99.7864L140.046 140.902L173.248 166.203L193.17 183.598L219.731 161.459L250.72 134.576L281.709 121.925L306.057 91.8793V33.3698L281.709 11.2309L250.72 14.3937L215.305 38.1139L199.81 53.9273L188.743 50.7646Z" fill="#4E79D7"/>
<path d="M93.5635 107.693H124.552V129.832H93.5635V107.693Z" fill="#211F22"/>
<path d="M124.552 129.832H155.54V151.97H124.552V129.832Z" fill="#211F22"/>
<path d="M155.54 151.97H186.529V174.109H155.54V151.97Z" fill="#211F22"/>
<path d="M199.81 151.97H230.798V174.109H199.81V151.97Z" fill="#211F22"/>
<path d="M230.799 129.832H261.787V151.97H230.799V129.832Z" fill="#211F22"/>
<path d="M261.787 107.693H292.775V129.832H261.787V107.693Z" fill="#211F22"/>
<path d="M93.5635 0.161713H146.687V22.3005H93.5635V0.161713Z" fill="#211F22"/>
<path d="M239.652 0.161713H292.775V22.3005H239.652V0.161713Z" fill="#211F22"/>
<path d="M146.687 22.3006H177.675V44.4395H146.687V22.3006Z" fill="#211F22"/>
<path d="M177.676 44.4396H208.664V66.5784H177.676V44.4396Z" fill="#211F22"/>
<path d="M177.676 170.947H208.664V193.086H177.676V170.947Z" fill="#211F22"/>
<path d="M208.664 22.3006H239.652V44.4395H208.664V22.3006Z" fill="#211F22"/>
<path d="M62.5747 22.3006H93.5633V107.693H62.5747V22.3006Z" fill="#211F22"/>
<path d="M292.776 22.3006H323.765V107.693H292.776V22.3006Z" fill="#211F22"/>
</g>
<g clip-path="url(#clip1_137_59)">
<path d="M89.4936 93.2619L50.4199 68.9162L31.6645 70.8639L9.7832 82.5498L14.472 123.45L55.1087 148.77L78.5531 164.351L92.6198 175.063L111.375 161.43L133.256 144.875L155.138 137.084L172.33 118.581V82.5498L155.138 68.9162L133.256 70.8639L108.249 85.4713L97.3086 95.2095L89.4936 93.2619Z" fill="#D86F9B"/>
<path d="M22.2871 128.319H44.1684V141.953H22.2871V128.319Z" fill="#211F22"/>
<path d="M44.168 141.953H66.049V155.586H44.168V141.953Z" fill="#211F22"/>
<path d="M66.0493 155.586H87.931V169.22H66.0493V155.586Z" fill="#211F22"/>
<path d="M97.3086 155.586H119.19V169.22H97.3086V155.586Z" fill="#211F22"/>
<path d="M119.19 141.953H141.071V155.586H119.19V141.953Z" fill="#211F22"/>
<path d="M141.071 128.319H162.952V141.953H141.071V128.319Z" fill="#211F22"/>
<path d="M22.2871 62.0996H59.7979V75.7331H22.2871V62.0996Z" fill="#211F22"/>
<path d="M125.441 62.0996H162.952V75.7331H125.441V62.0996Z" fill="#211F22"/>
<path d="M59.7979 75.7332H81.6793V89.3667H59.7979V75.7332Z" fill="#211F22"/>
<path d="M81.6792 89.3667H103.56V103H81.6792V89.3667Z" fill="#211F22"/>
<path d="M81.6792 167.272H103.56V180.906H81.6792V167.272Z" fill="#211F22"/>
<path d="M103.561 75.7332H125.442V89.3667H103.561V75.7332Z" fill="#211F22"/>
<path d="M0.405762 75.7332H22.287V128.32H0.405762V75.7332Z" fill="#211F22"/>
<path d="M162.953 75.7332H184.834V128.32H162.953V75.7332Z" fill="#211F22"/>
</g>
<defs>
<clipPath id="clip0_137_59">
<rect width="262" height="177" fill="white" transform="translate(62)"/>
</clipPath>
<clipPath id="clip1_137_59">
<rect width="185" height="109" fill="white" transform="translate(0 62)"/>
</clipPath>
</defs>
</svg>
