<svg width="92" height="88" viewBox="0 0 92 88" fill="none" xmlns="http://www.w3.org/2000/svg">
<path id="Vector" d="M51.171 4.32532L58.2256 25.8884C58.9491 28.1064 61.0333 29.6138 63.3848 29.6138H86.2158C91.4773 29.6138 93.6637 36.299 89.4089 39.3683L70.9349 52.6998C69.0316 54.0743 68.2373 56.5032 68.9608 58.729L76.0154 80.2921C77.6434 85.2592 71.9179 89.3906 67.6631 86.3214L49.1891 72.9899C47.2859 71.6153 44.7142 71.6153 42.8109 72.9899L24.3369 86.3214C20.0821 89.3906 14.3567 85.2592 15.9847 80.2921L23.0392 58.729C23.7628 56.511 22.9685 54.0743 21.0652 52.6998L2.59119 39.3683C-1.66358 36.299 0.522787 29.6138 5.78423 29.6138H28.6153C30.9668 29.6138 33.0509 28.1064 33.7745 25.8884L40.829 4.32532C42.4649 -0.641767 49.5431 -0.641767 51.171 4.32532Z" fill="black"/>
</svg>
