<svg width="96" height="92" viewBox="0 0 96 92" fill="none" xmlns="http://www.w3.org/2000/svg">
<g id="Group">
<path id="Vector" d="M73.0087 91.667C71.5096 91.667 70.0183 91.1882 68.7075 90.2463L50.2705 76.8483C49.0382 75.9457 47.3743 75.9457 46.1342 76.8483L27.6972 90.2463C25.0835 92.1458 21.7085 92.1458 19.0948 90.2463C16.4811 88.3469 15.4372 85.1367 16.434 82.0678L23.4745 60.3971C23.9454 58.9451 23.4352 57.3596 22.1951 56.4648L3.75809 43.0668C1.14441 41.1673 0.100513 37.9572 1.09732 34.8883C2.09413 31.8194 4.82554 29.8336 8.05927 29.8336H30.8446C32.3751 29.8336 33.7172 28.8603 34.1882 27.4004L41.2286 5.72968C42.2254 2.66077 44.9568 0.675003 48.1827 0.675003C51.4086 0.675003 54.14 2.66077 55.1447 5.72968L62.1851 27.4004C62.656 28.8524 63.9982 29.8336 65.5287 29.8336H88.314C91.5399 29.8336 94.2713 31.8194 95.276 34.8883C96.2728 37.9572 95.2289 41.1673 92.623 43.0668L74.186 56.4648C72.9459 57.3674 72.4357 58.9451 72.9067 60.3971L79.9471 82.0678C80.9439 85.1367 79.9 88.3469 77.2942 90.2463C76.007 91.196 74.5078 91.667 73.0087 91.667ZM48.2063 72.3744C49.7132 72.3744 51.2202 72.8454 52.5075 73.7794L70.9445 87.1774C72.4671 88.2841 74.084 87.8995 75.0808 87.1774C76.0776 86.4475 76.941 85.0347 76.3602 83.2452L69.3197 61.5744C68.3386 58.5526 69.4061 55.2639 71.9805 53.3959L90.4175 39.9978C91.9402 38.8911 92.0736 37.2429 91.6969 36.0656C91.3201 34.8883 90.237 33.6324 88.3533 33.6324H65.568C62.3892 33.6324 59.595 31.5996 58.606 28.5777L51.5656 6.90701C50.9848 5.11747 49.4542 4.47388 48.222 4.47388C46.9897 4.47388 45.4592 5.10962 44.8783 6.90701L37.8379 28.5777C36.8568 31.5996 34.0626 33.6324 30.8759 33.6324H8.09067C6.20694 33.6324 5.12379 34.8883 4.74705 36.0656C4.36245 37.2429 4.50373 38.8911 6.02641 39.9978L24.4634 53.3959C27.0378 55.2639 28.1053 58.5526 27.1242 61.5744L20.0837 83.2452C19.5029 85.0347 20.3585 86.4553 21.3631 87.1774C22.3599 87.9074 23.9768 88.2841 25.4995 87.1774L43.9365 73.7794C45.1845 72.8454 46.6914 72.3744 48.2063 72.3744Z" fill="black"/>
</g>
</svg>
