<svg width="100" height="96" viewBox="0 0 100 96" fill="none" xmlns="http://www.w3.org/2000/svg">
<g id="Group">
<path id="Vector" d="M25.3397 95.5394C23.456 95.5394 21.5644 94.9429 19.9239 93.742C16.6353 91.3481 15.3167 87.3059 16.5803 83.4364L23.6208 61.7657C23.8406 61.0985 23.6051 60.3686 23.0321 59.9526L4.5951 46.5546C1.30642 44.1607 -0.012179 40.1185 1.24364 36.249C2.49946 32.3795 5.94513 29.8836 10.0108 29.8836H32.7961C33.5025 29.8836 34.1147 29.4362 34.3345 28.7612L41.3749 7.09043C42.6307 3.22094 46.0764 0.725006 50.1421 0.725006C54.2078 0.725006 57.6456 3.22094 58.9014 7.09043L65.9419 28.7612C66.1617 29.4283 66.7739 29.8836 67.4803 29.8836H90.2656C94.3313 29.8836 97.7691 32.3795 99.0327 36.249C100.289 40.1185 98.9778 44.1607 95.6813 46.5546L77.2443 59.9526C76.6713 60.3686 76.4358 61.0907 76.6556 61.7578L83.696 83.4286C84.9519 87.2981 83.6411 91.3402 80.3446 93.7341C77.048 96.1281 72.8018 96.1281 69.5131 93.7341L51.0761 80.3361C50.5032 79.9201 49.7418 79.9201 49.1767 80.3361L30.7397 93.7341C29.115 94.9429 27.2313 95.5394 25.3397 95.5394ZM10.0108 37.4891C8.99049 37.4891 8.60588 38.1877 8.47244 38.6115C8.33901 39.0275 8.23698 39.8202 9.06111 40.4168L27.4981 53.8148C30.7397 56.1695 32.0819 60.3137 30.8496 64.1204L23.8091 85.7911C23.4952 86.7644 24.0446 87.3452 24.3978 87.5963C24.751 87.8553 25.4731 88.1928 26.2973 87.5963L44.7342 74.1983C47.9758 71.8436 52.3319 71.8436 55.5735 74.1983L74.0105 87.5885C74.8347 88.185 75.5568 87.8475 75.91 87.5885C76.2632 87.3295 76.8126 86.7486 76.4986 85.7754L69.4582 64.1047C68.2181 60.2979 69.5681 56.1537 72.8096 53.7991L91.2467 40.401C92.0786 39.7967 91.9688 39.0118 91.8353 38.588C91.7019 38.172 91.3173 37.4734 90.2969 37.4734H67.5117C63.5087 37.4734 59.9846 34.9147 58.7445 31.108L51.704 9.43724C51.3901 8.46398 50.6052 8.32271 50.1656 8.32271C49.7261 8.32271 48.9412 8.46398 48.6273 9.44509L41.5868 31.1158C40.3467 34.9225 36.8304 37.4813 32.8197 37.4813H10.0108V37.4891Z" fill="black"/>
</g>
</svg>
